<?xml version="1.0" encoding="UTF-8"?>
<svg id="Layer_2" data-name="Layer 2" xmlns="http://www.w3.org/2000/svg" viewBox="0 0 585.51 156.07">
  <defs>
    <style>
      .cls-1 {
        fill: #1a2142;
      }

      .cls-2 {
        fill: #f05a28;
      }
    </style>
  </defs>
  <g id="Layer_1-2" data-name="Layer 1">
    <g>
      <g>
        <path class="cls-1" d="M217.47,60.83c1.86-3.41,4.49-5.99,7.84-7.66,3.35-1.68,7.25-2.22,11.74-1.68v18.38c-6.71-1.14-11.62-.18-14.79,2.87s-4.73,8.44-4.73,16.17v26.11h-19.64v-62.51h19.64v8.44l-.06-.12Z"/>
        <path class="cls-1" d="M269.56,116.82c-10.24,0-18.5-3.05-24.85-9.16s-9.52-14.01-9.52-23.77,3.05-17.48,9.16-23.71c6.11-6.23,14.07-9.34,23.95-9.34s18.02,3.05,23.89,9.16c5.87,6.11,8.8,13.83,8.8,23.17,0,2.45-.18,4.61-.48,6.47h-46.22c1.5,7.19,6.71,10.78,15.63,10.78,5.99,0,10.18-2.1,12.51-6.35l17.66,5.15c-1.98,4.49-5.63,8.56-11.02,12.15-5.39,3.59-11.86,5.39-19.46,5.39l-.06.06ZM281.9,77.9c-.3-2.93-1.68-5.45-4.19-7.54-2.51-2.1-5.69-3.11-9.52-3.11s-7.01,1.08-9.46,3.17c-2.45,2.1-3.89,4.61-4.37,7.48h27.54Z"/>
        <path class="cls-1" d="M337.82,116.82c-10.24,0-18.5-3.05-24.85-9.16s-9.52-14.01-9.52-23.77,3.05-17.48,9.16-23.71c6.11-6.23,14.07-9.34,23.95-9.34s18.02,3.05,23.89,9.16c5.87,6.11,8.8,13.83,8.8,23.17,0,2.45-.18,4.61-.48,6.47h-46.22c1.5,7.19,6.71,10.78,15.63,10.78,5.99,0,10.18-2.1,12.51-6.35l17.66,5.15c-1.98,4.49-5.63,8.56-11.02,12.15-5.39,3.59-11.86,5.39-19.46,5.39l-.06.06ZM350.15,77.9c-.3-2.93-1.68-5.45-4.19-7.54s-5.69-3.11-9.52-3.11-7,1.08-9.46,3.17-3.89,4.61-4.37,7.48h27.54Z"/>
        <path class="cls-1" d="M413.62,50.9c8.08,0,14.19,2.51,18.26,7.48s6.11,11.74,6.11,20.3v36.4h-19.58v-32.51c0-9.04-3.71-13.59-11.2-13.59-3.77,0-6.71,1.38-8.86,4.13-2.16,2.75-3.23,6.53-3.23,11.38v30.54h-19.64v-62.51h19.64v6.47c4.73-5.45,10.9-8.2,18.5-8.2v.12Z"/>
        <path class="cls-1" d="M456.73,45.21c-3.11,0-5.75-1.08-7.96-3.23-2.22-2.16-3.29-4.79-3.29-7.9s1.14-5.63,3.35-7.72c2.21-2.1,4.85-3.17,7.96-3.17s5.75,1.08,7.96,3.23,3.35,4.73,3.35,7.72-1.08,5.75-3.29,7.9c-2.21,2.16-4.85,3.23-7.96,3.23l-.12-.06ZM446.67,52.45h19.58v62.51h-19.58v-62.51Z"/>
        <path class="cls-1" d="M517.38,112.99c-5.15,2.04-10.24,3.05-15.33,3.05-7.37,0-12.87-2.1-16.59-6.29s-5.57-9.94-5.57-17.3v-22.81h-9.7v-17.12h9.7v-19.64h19.64v19.64h16.83v17.12h-16.83v22.81c0,4.37,2.16,6.53,6.47,6.53,2.4,0,4.61-.54,6.65-1.62l4.73,15.63Z"/>
        <path class="cls-1" d="M550.31,116.82c-10.24,0-18.5-3.05-24.85-9.16-6.35-6.11-9.52-14.01-9.52-23.77s3.05-17.48,9.16-23.71c6.11-6.23,14.07-9.34,23.95-9.34s18.02,3.05,23.89,9.16c5.87,6.11,8.8,13.83,8.8,23.17,0,2.45-.18,4.61-.48,6.47h-46.22c1.5,7.19,6.71,10.78,15.63,10.78,5.99,0,10.18-2.1,12.51-6.35l17.66,5.15c-1.98,4.49-5.63,8.56-11.02,12.15-5.39,3.59-11.86,5.39-19.46,5.39l-.06.06ZM562.65,77.9c-.3-2.93-1.68-5.45-4.19-7.54-2.52-2.1-5.69-3.11-9.52-3.11s-7.01,1.08-9.46,3.17c-2.46,2.1-3.89,4.61-4.37,7.48h27.54Z"/>
      </g>
      <g>
        <polygon class="cls-2" points="131.7 124.79 102.81 95.91 85.98 79.07 102.81 62.23 131.7 33.35 148.53 50.19 119.65 79.07 148.53 107.95 131.7 124.79"/>
        <circle class="cls-1" cx="72.73" cy="28.55" r="28.55"/>
        <circle class="cls-1" cx="28.55" cy="78.93" r="28.55"/>
        <circle class="cls-1" cx="72.73" cy="127.52" r="28.55"/>
      </g>
    </g>
  </g>
</svg>