<?xml version="1.0" encoding="iso-8859-1"?>
<!-- Uploaded to: SVG Repo, www.svgrepo.com, Generator: SVG Repo Mixer Tools -->
<svg fill="#000000" height="800px" width="800px" version="1.1" id="Layer_1" xmlns="http://www.w3.org/2000/svg" xmlns:xlink="http://www.w3.org/1999/xlink" 
	 viewBox="0 0 512 512" xml:space="preserve">
<g>
	<g>
		<g>
			<path d="M499.786,464.087h-91.595V169.446c0-19.455-13.888-35.722-32.271-39.419v-29.123h1.043
				c8.473,0,15.367-6.894,15.367-15.367V56.887c0-8.473-6.894-15.366-15.367-15.366h-127.32v-14.79
				c0-10.228-8.322-18.55-18.55-18.55H161.7c-10.229,0-18.551,8.322-18.551,18.55V41.52h-23.972
				c-8.474,0-15.368,6.894-15.368,15.366v28.651c0,8.473,6.894,15.367,15.368,15.367h1.043v363.183H12.214
				C5.48,464.087,0,469.566,0,476.302v15.302c0,6.735,5.48,12.215,12.214,12.215h487.573c6.734,0,12.214-5.48,12.214-12.215v-15.302
				C512,469.566,506.52,464.087,499.786,464.087z M392.314,169.446v33.964H375.92v-56.96
				C385.449,149.75,392.314,158.809,392.314,169.446z M392.313,300.182v65.017h-16.394v-65.017H392.313z M375.919,284.305v-65.018
				h16.394v65.018H375.919z M375.92,381.076h16.394v83.011H375.92V381.076z M159.026,26.731c0-1.449,1.225-2.673,2.674-2.673h69.394
				c1.449,0,2.673,1.224,2.673,2.673V41.52h-74.74V26.731z M119.686,85.027v-27.63h256.766v27.63H119.686z M360.042,100.904v363.183
				H136.097V100.904H360.042z M76.698,487.941H15.877v-7.978h60.821V487.941z M419.424,487.941H92.575v-7.978h326.848V487.941z
				 M496.123,487.941h-60.822v-7.978h60.822V487.941z"/>
			<path d="M276.619,328.868h53.255c7.302,0,13.245-5.941,13.245-13.245v-10.965c0-6.056-4.09-11.162-9.649-12.735v-44.826
				c0-7.302-5.94-13.244-13.243-13.244h-33.958c-7.302,0-13.244,5.941-13.244,13.244v44.826c-5.559,1.571-9.649,6.679-9.649,12.735
				v10.965C263.375,322.926,269.316,328.868,276.619,328.868z M288.901,249.731h28.689v41.684h-28.689V249.731z M279.252,307.292
				h47.988v5.699h-47.988V307.292z"/>
			<path d="M276.619,446.128h53.255c7.302,0,13.245-5.941,13.245-13.245v-10.965c0-6.056-4.09-11.162-9.649-12.734v-44.826
				c0-7.302-5.94-13.244-13.243-13.244h-33.958c-7.302,0-13.244,5.941-13.244,13.244v44.826c-5.559,1.571-9.649,6.679-9.649,12.734
				v10.965C263.375,440.187,269.316,446.128,276.619,446.128z M288.901,366.991h28.689v41.684h-28.689V366.991z M279.252,424.552
				h47.988v5.699h-47.988V424.552z"/>
			<path d="M166.265,211.607h53.255c7.302,0,13.245-5.941,13.245-13.245v-10.965c0-6.056-4.09-11.162-9.649-12.734v-44.826
				c0-7.302-5.94-13.244-13.243-13.244h-33.958c-7.302,0-13.244,5.941-13.244,13.244v44.826c-5.559,1.571-9.649,6.679-9.649,12.734
				v10.965C153.022,205.666,158.963,211.607,166.265,211.607z M178.548,132.471h28.69v41.684h-28.69V132.471z M168.899,190.032
				h47.988v5.699h-47.988V190.032z"/>
			<path d="M166.265,328.868h53.255c7.302,0,13.245-5.941,13.245-13.245v-10.965c0-6.056-4.09-11.162-9.649-12.735v-44.826
				c0-7.302-5.94-13.244-13.243-13.244h-33.958c-7.302,0-13.244,5.941-13.244,13.244v44.826c-5.559,1.571-9.649,6.679-9.649,12.735
				v10.965C153.022,322.926,158.963,328.868,166.265,328.868z M178.548,249.731h28.69v41.684h-28.69V249.731z M168.899,307.292
				h47.988v5.699h-47.988V307.292z"/>
			<path d="M276.619,211.607h53.255c7.302,0,13.245-5.941,13.245-13.245v-10.965c0-6.056-4.09-11.162-9.649-12.734v-44.826
				c0-7.302-5.94-13.244-13.243-13.244h-33.958c-7.302,0-13.244,5.941-13.244,13.244v44.826c-5.559,1.571-9.649,6.679-9.649,12.734
				v10.965C263.375,205.666,269.316,211.607,276.619,211.607z M288.901,132.471h28.689v41.684h-28.689V132.471z M279.252,190.032
				h47.988v5.699h-47.988V190.032z"/>
			<path d="M166.265,446.128h53.255c7.302,0,13.245-5.941,13.245-13.245v-10.965c0-6.056-4.09-11.162-9.649-12.734v-44.826
				c0-7.302-5.94-13.244-13.243-13.244h-33.958c-7.302,0-13.244,5.941-13.244,13.244v44.826c-5.559,1.571-9.649,6.679-9.649,12.734
				v10.965C153.022,440.187,158.963,446.128,166.265,446.128z M178.548,366.991h28.69v41.684h-28.69V366.991z M168.899,424.552
				h47.988v5.699h-47.988V424.552z"/>
		</g>
	</g>
</g>
</svg>